# xmcd
#
# Track frame offsets:
#	150
#	14573
#	26800
#	40854
#	52457
#	66244
#	79000
#	92106
#	105465
#	119030
#	132779
#	147425
#	159591
#	171897
#	183613
#	194618
#
# Disc length: 2715 seconds
#
# Revision: 0
# Processed by: cddbd v1.5.2PL0 Copyright (c) Steve Scherf et al.
# Submitted via: EasyCDDAExtractor 2010.4.0.0
#
DISCID=f10a9910
DTITLE=Franck Sinatra - The collection
DYEAR=1900
DGENRE=Vocal
TTITLE0=I get a kick out of you
TTITLE1=Love and marriage
TTITLE2=Learnin' the blues
TTITLE3=Same old saturday night
TTITLE4=Three coins in the fountain
TTITLE5=Young at heart
TTITLE6=South of the border
TTITLE7=From here to eternity
TTITLE8=I'm walking behind you
TTITLE9=Lean baby
TTITLE10=The gal that got away
TTITLE11=The girl next door
TTITLE12=A foggy day
TTITLE13=My funny Valentine
TTITLE14=Jeepers creepers
TTITLE15=They can't take that away from me
EXTD=
EXTT0=
EXTT1=
EXTT2=
EXTT3=
EXTT4=
EXTT5=
EXTT6=
EXTT7=
EXTT8=
EXTT9=
EXTT10=
EXTT11=
EXTT12=
EXTT13=
EXTT14=
EXTT15=
PLAYORDER=
